<svg xmlns="http://www.w3.org/2000/svg" xmlns:xlink="http://www.w3.org/1999/xlink" viewBox="0 0 400 300" width="406" height="306" class="illustration styles_illustrationTablet__1DWOa"><defs><linearGradient id="linear-gradient" x1="305.16" y1="123.9" x2="249.73" y2="184.56" gradientUnits="userSpaceOnUse"><stop offset="0" stop-color="#d4a397"></stop><stop offset="1" stop-color="#fff"></stop></linearGradient><linearGradient id="linear-gradient-2" x1="287.55" y1="211.12" x2="252.67" y2="249.29" xlink:href="#linear-gradient"></linearGradient><linearGradient id="linear-gradient-3" x1="153.61" y1="190.82" x2="122.12" y2="225.28" xlink:href="#linear-gradient"></linearGradient></defs><title>PP</title><g style="isolation: isolate;"><g id="Layer_2" data-name="Layer 2"><path d="M194.36,286.74,16.89,181.85c-5.65-3.17-10.5-8.38-5-11.79L190,67.41c2.67-1.65,6.73-2.74,9.45-1.16L385.74,174.36c5.65,3.28,6.66,12.45,1,15.73l-169,96.48A23.6,23.6,0,0,1,194.36,286.74Z" fill="#b7e63e"></path><path d="M288.61,140a594.76,594.76,0,0,0-62.71,30.14,538.76,538.76,0,0,0-46.27,29.17c7.58,5.39,23.78,15.21,43.18,26.6,33.65-19.59,66.91-39.86,100.36-59.8A299.32,299.32,0,0,1,288.61,140Z" fill="url(#linear-gradient)" style="mix-blend-mode: multiply;"></path><path d="M323,218.25c-8.11-2.64-21.06-2.32-21.35-2.76l-11.4-3.63A349.29,349.29,0,0,0,234.19,237a339.05,339.05,0,0,0-29.12,18.36c4.77,3.39,15,9.57,27.17,16.74C262.66,254.44,292.56,235.84,323,218.25Z" fill="url(#linear-gradient-2)" style="mix-blend-mode: multiply;"></path><path d="M138.36,156.67l-22.67-7.22L39.7,195c9.47,8.15,93.08,54.54,103.67,61.27L242,214.56C240.87,212,139.93,159.08,138.36,156.67Z" fill="url(#linear-gradient-3)" style="mix-blend-mode: multiply;"></path><path d="M162,35l6.94,79.67s8,8.45,28.45,8.45,25.33-12.49,25.33-12.49L227.87,35s-2.17-13.88-35.73-13.88C165.77,21.08,162,35,162,35Z" fill="#d8d8d8"></path><path d="M165.9,38.7l5.42,66s3.92,9.94,24,9.94,23.65-10.55,23.65-10.55l5.72-65.38" fill="#fea94e"></path><ellipse cx="195.28" cy="38.7" rx="29.38" ry="14.46" fill="#fece00"></ellipse><ellipse cx="195.28" cy="37.12" rx="32.66" ry="16.04" fill="none" stroke="#c4c4c4" stroke-miterlimit="10"></ellipse><path d="M203.55,53.16v67s6.65-1.37,6.94-1.91.46-67.37.46-67.37Z" fill="#fff" opacity="0.33"></path><path d="M271.31,144.86l-4.65,6.75s15,25.66,42.46,19.81c0,0,19.06-2.55,26.86-16.81l-4.5-5s-13.5,12.52-23.71,13.2C283.16,164.52,271.31,144.86,271.31,144.86Z" fill="#22c55e"></path><path d="M331.48,149.66S318.12,162,307.93,162.85c.54,2.83,1,5.68,1.53,8.52,2.55-.41,19.32-3.6,26.52-16.75Z" fill="#606060" opacity="0.19" style="mix-blend-mode: multiply;"></path><path d="M307.93,162.85c-23.81,1-36.63-18-36.63-18l-2.73,4c2.91,4.58,7.38,8.09,11.68,11.29,8.68,6.45,18.92,7.89,28.4,6.69C308.41,165.44,308.19,164.21,307.93,162.85Z" fill="#ffe89f"></path><path d="M331.48,149.66S318.12,162,307.93,162.85q.37,2,.72,4a36.21,36.21,0,0,0,3.84-.84,35.15,35.15,0,0,0,14.72-8.11c1.86-1.73,3.61-3.57,5.43-5.34l.75-.74Z" fill="#ffedbb"></path><path d="M331.48,149.66l-32.35-40.93,8.64,54.14S325.36,161.51,331.48,149.66Z" fill="#e91837"></path><path d="M299.13,108.73l-27.83,36.13a41.68,41.68,0,0,0,36.46,18Z" fill="#cc1b3d"></path><ellipse cx="295.02" cy="121.66" rx="0.88" ry="1.46" fill="#66390c"></ellipse><ellipse cx="289.54" cy="128.7" rx="0.88" ry="1.46" fill="#66390c"></ellipse><ellipse cx="297.67" cy="131.86" rx="0.88" ry="1.46" fill="#66390c"></ellipse><ellipse cx="299.13" cy="140.63" rx="0.88" ry="1.46" fill="#66390c"></ellipse><ellipse cx="290.42" cy="142.84" rx="0.88" ry="1.46" fill="#66390c"></ellipse><ellipse cx="300.99" cy="154.57" rx="0.88" ry="1.46" fill="#66390c"></ellipse><ellipse cx="284.94" cy="137.26" rx="0.88" ry="1.46" fill="#66390c"></ellipse><ellipse cx="278.75" cy="142.84" rx="0.88" ry="1.46" fill="#66390c"></ellipse><ellipse cx="290.42" cy="151.65" rx="0.88" ry="1.46" fill="#66390c"></ellipse><ellipse cx="316.19" cy="142.09" rx="0.88" ry="1.46" fill="#66390c"></ellipse><ellipse cx="311.3" cy="149.66" rx="0.88" ry="1.46" fill="#66390c"></ellipse><ellipse cx="322.84" cy="152.62" rx="0.88" ry="1.46" fill="#66390c"></ellipse><ellipse cx="311.3" cy="135.53" rx="0.88" ry="1.46" fill="#66390c"></ellipse><ellipse cx="305.6" cy="125.38" rx="0.88" ry="1.46" fill="#66390c"></ellipse><ellipse cx="165.62" cy="175.7" rx="103.73" ry="57.41" fill="#22c55e"></ellipse><ellipse cx="165.62" cy="175.7" rx="103.73" ry="57.41" fill="#093e3e" opacity="0.29"></ellipse><ellipse cx="165.62" cy="169.45" rx="103.73" ry="57.41" fill="#22c55e"></ellipse><ellipse cx="165.62" cy="168.96" rx="72.1" ry="36.85" fill="#093e3e" opacity="0.29"></ellipse><path d="M140.82,191.45l2.3.43-.6-4.85a43.89,43.89,0,0,1-9.14-2.77,101.93,101.93,0,0,1-19.72-8,39.63,39.63,0,0,1-4.11-2.19c-5.6-1.48-10.71-7.43-9.66-.2.69,4.74,3.18,7.16,4.38,8.85q7.82,2.24,15.72,4.18C127,188.21,133.9,189.79,140.82,191.45Z" fill="#99ce45"></path><path d="M143.66,196.2l-.28-2.23-2.45-.59-38.66-7c-4.18,1.24-11.52.54-7.68,4.58,3.25,3.42,8.33,2.77,9.7,4.08q5.37.61,10.77.91C124.57,195.46,134.12,195.79,143.66,196.2Z" fill="#99ce45"></path><path d="M142.64,200.35l1.51-.19-.25-2a.84.84,0,0,1-.76.48l-40.64,1c-3.09,3.06-6.86,3.2-1,4.38,4.12.82,6.79.73,8,1.65l32.3-5.46A.93.93,0,0,1,142.64,200.35Z" fill="#99ce45"></path><path d="M142.21,184.51l-.1-.84a.78.78,0,0,1-1.22,0c-4.69-5.53-10.75-9.91-14.69-16a6.27,6.27,0,0,1-1.64-.47c-5.74-2.37-7.54-4.7-10-.86-1.62,2.56.16,5.51-.32,7,8.31,4.62,17.26,7.85,26.29,10.83Z" fill="#99ce45"></path><path d="M141.51,178.91s-1-15-8-15.67c-3.43-.31-4.26,1.18-4.89,2.51,4.39,5.44,8.85,10.82,13.31,16.21Z" fill="#99ce45"></path><path d="M144.11,203.6l.44-.27,0-.37-.62.43A1,1,0,0,1,144.11,203.6Z" fill="#99ce45"></path><path d="M142.36,202.2c-.7.07-1.39.16-2.09.22a129,129,0,0,0-30.93,12.14c.28,1.17,1.38,1.41,3.82,1.06,4.39-.63,9.61-6.41,11.13-3,3-2.08,6.49-3.44,9.69-5.22C136.86,205.78,139.64,204,142.36,202.2Z" fill="#99ce45"></path><path d="M110.29,211.12a.88.88,0,0,1-.62,0q-.09.41-.16.77c.48-.31,1-.63,1.44-.93Z" fill="#99ce45"></path><path d="M140.89,183.63a.78.78,0,0,0,1.22,0l-.21-1.7c-4.45-5.39-8.92-10.77-13.31-16.21-.51,1.08-.88,2.06-2.39,1.89C130.14,173.72,136.2,178.1,140.89,183.63Z" fill="#88b72c"></path><path d="M133.38,184.26a43.89,43.89,0,0,0,9.14,2.77l-.31-2.52-1.64-.33c-9-3-18-6.21-26.29-10.83-.24.76-1,1.17-3.09,1a9.33,9.33,0,0,1-1.64-.29,39.63,39.63,0,0,0,4.11,2.19A101.93,101.93,0,0,0,133.38,184.26Z" fill="#88b72c"></path><path d="M143.38,194l-.26-2.08-2.3-.43c-6.92-1.66-13.86-3.24-20.85-4.57q-7.89-1.94-15.72-4.18c.81,1.14,1,1.94-.26,2.9a5.64,5.64,0,0,1-1.73.78l38.66,7Z" fill="#88b72c"></path><path d="M143.9,198.1l-.24-1.91c-9.54-.41-19.09-.73-28.6-.25q-5.39-.3-10.77-.91c.51.49.52,1.25-.29,2.59a9.74,9.74,0,0,1-1.51,1.91l40.64-1A.84.84,0,0,0,143.9,198.1Z" fill="#88b72c"></path><path d="M144.62,203.92l-.07-.58-.44.27a1,1,0,0,0-.23-.2l.62-.43-.35-2.81-1.51.19a.93.93,0,0,0-.8-.23l-32.3,5.46c.84.63,1,1.73.48,3.95-.14.57-.26,1.08-.36,1.56a.88.88,0,0,0,.62,0l.66-.19c-.48.3-1,.62-1.44.93a6.94,6.94,0,0,0-.16,2.7,129,129,0,0,1,30.93-12.14c.7-.06,1.39-.14,2.09-.22-2.72,1.83-5.5,3.57-8.37,5.17-3.19,1.77-6.68,3.14-9.69,5.22l.07.15C125.8,216.46,144.62,203.92,144.62,203.92Z" fill="#88b72c"></path><ellipse cx="114.5" cy="185.4" rx="17" ry="7.83" fill="#d84027"></ellipse><ellipse cx="114.5" cy="183.15" rx="17" ry="7.83" fill="#ea6453"></ellipse><path d="M102.72,183.81s4.43,4.55,13.54,4.37,11.68-6.78,11.68-6.78Z" fill="#d84027"></path><path d="M101.61,182.53l25.22-2.78s-8.82-2.44-15-2.17S101.61,182.53,101.61,182.53Z" fill="#d84027"></path><path d="M103.86,183.68a.46.46,0,0,0,0,.92A.46.46,0,0,0,103.86,183.68Z" fill="#f9b2ac"></path><path d="M110.53,186.82a.46.46,0,0,0,0,.92A.46.46,0,0,0,110.53,186.82Z" fill="#f9b2ac"></path><path d="M115.29,186.63a.46.46,0,0,0,0,.92A.46.46,0,0,0,115.29,186.63Z" fill="#f9b2ac"></path><path d="M111.29,183.4a.46.46,0,0,0,0,.92A.46.46,0,0,0,111.29,183.4Z" fill="#f9b2ac"></path><path d="M106.72,180.45a.46.46,0,0,0,0,.92A.46.46,0,0,0,106.72,180.45Z" fill="#f9b2ac"></path><path d="M112.24,177.78a.46.46,0,0,0,0,.92A.46.46,0,0,0,112.24,177.78Z" fill="#f9b2ac"></path><path d="M111.58,179a.46.46,0,0,0,0,.92A.46.46,0,0,0,111.58,179Z" fill="#f9b2ac"></path><path d="M106.43,178.26a.46.46,0,0,0,0,.92A.46.46,0,0,0,106.43,178.26Z" fill="#f9b2ac"></path><path d="M101.39,181.78a.46.46,0,0,0,0,.92A.46.46,0,0,0,101.39,181.78Z" fill="#f9b2ac"></path><path d="M119.69,186.64a.46.46,0,0,0,0,.92A.46.46,0,0,0,119.69,186.64Z" fill="#f9b2ac"></path><path d="M123.69,183.12a.46.46,0,0,0,0,.92A.46.46,0,0,0,123.69,183.12Z" fill="#f9b2ac"></path><path d="M116.93,184.16a.46.46,0,0,0,0,.92A.46.46,0,0,0,116.93,184.16Z" fill="#f9b2ac"></path><path d="M118.65,178.74a.46.46,0,0,0,0,.92A.46.46,0,0,0,118.65,178.74Z" fill="#f9b2ac"></path><path d="M123.6,179.88a.46.46,0,0,0,0,.92A.46.46,0,0,0,123.6,179.88Z" fill="#f9b2ac"></path><path d="M89.09,187.54v3.61l8.42-3.61v-3.19s-3.18-11.67,4.91-14.67,18.79,5.2,18.79,5.2l8.63-3.08.35-3.43s-12.5-3.26-18.12-2.87-13.45,3.13-13.45,3.13" fill="#a5d139"></path><path d="M89.09,187.54l8.42-3.19s-3.18-11.63,6.23-15.29,17.89.87,18.25,2.74l8.21-3.43s-11.58-11.33-27.77-4.9C89,168.8,86.91,181.56,89.09,187.54Z" fill="#c7ff5a"></path><path d="M90.35,178v3.61L98.78,178v-3.19s-3.18-11.67,4.91-14.67,18.79,5.2,18.79,5.2l8.63-3.08.35-3.43S119,155.61,113.34,156s-13.45,3.13-13.45,3.13" fill="#a5d139"></path><path d="M90.35,178l8.42-3.19S95.6,163.22,105,159.56s17.89.87,18.25,2.74l8.21-3.43s-11.58-11.33-27.77-4.9C90.22,159.3,88.16,172.06,90.35,178Z" fill="#c7ff5a"></path><path d="M92.42,165.05l-.54,3.57,8.87-2.31.48-3.16s-1.4-12,7-13.77,17.81,7.95,17.81,7.95l9-1.75.86-3.34s-11.88-5.09-17.49-5.54-13.77,1.09-13.77,1.09" fill="#a5d139"></path><path d="M92.42,165.05l8.81-1.9s-1.41-12,8.44-14.19,17.56,3.53,17.63,5.43l8.63-2.17s-9.76-12.93-26.73-9C95.09,146.51,91.15,158.82,92.42,165.05Z" fill="#c7ff5a"></path><path d="M95.13,152.34l-.85,3.51,9-1.52.75-3.1s-.33-12.09,8.23-13.1,17,9.49,17,9.49l9.11-.95,1.15-3.25s-11.38-6.12-16.93-7.06-13.81-.13-13.81-.13" fill="#a5d139"></path><path d="M95.13,152.34l8.94-1.11s-.34-12,9.66-13.38,17.18,5.07,17.08,7l8.79-1.4s-8.58-13.74-25.83-11.32C99.42,134.1,94.41,146,95.13,152.34Z" fill="#c7ff5a"></path><ellipse cx="105.98" cy="171.32" rx="17" ry="7.83" fill="#d84027"></ellipse><ellipse cx="105.98" cy="169.06" rx="17" ry="7.83" fill="#ea6453"></ellipse><path d="M94.2,169.72s4.43,4.55,13.54,4.37,11.68-6.78,11.68-6.78Z" fill="#d84027"></path><path d="M93.08,168.44l25.22-2.78s-8.82-2.44-15-2.17S93.08,168.44,93.08,168.44Z" fill="#d84027"></path><path d="M95.34,169.59a.46.46,0,0,0,0,.92A.46.46,0,0,0,95.34,169.59Z" fill="#f9b2ac"></path><path d="M102,172.74a.46.46,0,0,0,0,.92A.46.46,0,0,0,102,172.74Z" fill="#f9b2ac"></path><path d="M106.77,172.55a.46.46,0,0,0,0,.92A.46.46,0,0,0,106.77,172.55Z" fill="#f9b2ac"></path><path d="M102.77,169.31a.46.46,0,0,0,0,.92A.46.46,0,0,0,102.77,169.31Z" fill="#f9b2ac"></path><path d="M98.2,166.36a.46.46,0,0,0,0,.92A.46.46,0,0,0,98.2,166.36Z" fill="#f9b2ac"></path><path d="M103.72,163.69a.46.46,0,0,0,0,.92A.46.46,0,0,0,103.72,163.69Z" fill="#f9b2ac"></path><path d="M103.05,164.93a.46.46,0,0,0,0,.92A.46.46,0,0,0,103.05,164.93Z" fill="#f9b2ac"></path><path d="M97.91,164.17a.46.46,0,0,0,0,.92A.46.46,0,0,0,97.91,164.17Z" fill="#f9b2ac"></path><path d="M92.87,167.69a.46.46,0,0,0,0,.92A.46.46,0,0,0,92.87,167.69Z" fill="#f9b2ac"></path><path d="M111.17,172.55a.46.46,0,0,0,0,.92A.46.46,0,0,0,111.17,172.55Z" fill="#f9b2ac"></path><path d="M115.17,169a.46.46,0,0,0,0,.92A.46.46,0,0,0,115.17,169Z" fill="#f9b2ac"></path><path d="M108.41,170.07a.46.46,0,0,0,0,.92A.46.46,0,0,0,108.41,170.07Z" fill="#f9b2ac"></path><path d="M110.12,164.65a.46.46,0,0,0,0,.92A.46.46,0,0,0,110.12,164.65Z" fill="#f9b2ac"></path><path d="M115.07,165.79a.46.46,0,0,0,0,.92A.46.46,0,0,0,115.07,165.79Z" fill="#f9b2ac"></path><ellipse cx="103.57" cy="159.28" rx="6.6" ry="14.32" transform="translate(-68.04 240.81) rotate(-82.38)" fill="#d84027"></ellipse><ellipse cx="103.83" cy="157.39" rx="6.6" ry="14.32" transform="translate(-65.95 239.42) rotate(-82.38)" fill="#ea6453"></ellipse><path d="M93.92,156.63s3.19,4.3,10.82,5.16,10.51-4.36,10.51-4.36Z" fill="#d84027"></path><path d="M93.13,155.44l21.37.5s-7.09-3-12.24-3.48A13.46,13.46,0,0,0,93.13,155.44Z" fill="#d84027"></path><path d="M94.89,156.65a.39.39,0,0,0-.1.77A.39.39,0,0,0,94.89,156.65Z" fill="#f9b2ac"></path><path d="M100.1,160a.39.39,0,0,0-.1.77A.39.39,0,0,0,100.1,160Z" fill="#f9b2ac"></path><path d="M104.09,160.39a.39.39,0,0,0-.1.77A.39.39,0,0,0,104.09,160.39Z" fill="#f9b2ac"></path><path d="M101.12,157.24a.39.39,0,0,0-.1.77A.39.39,0,0,0,101.12,157.24Z" fill="#f9b2ac"></path><path d="M97.63,154.27a.39.39,0,0,0-.1.77A.39.39,0,0,0,97.63,154.27Z" fill="#f9b2ac"></path><path d="M102.54,152.66a.39.39,0,0,0-.1.77A.39.39,0,0,0,102.54,152.66Z" fill="#f9b2ac"></path><path d="M101.85,153.62a.39.39,0,0,0-.1.77A.39.39,0,0,0,101.85,153.62Z" fill="#f9b2ac"></path><path d="M97.64,152.41a.39.39,0,0,0-.1.77A.39.39,0,0,0,97.64,152.41Z" fill="#f9b2ac"></path><path d="M93,154.78a.39.39,0,0,0-.1.77A.39.39,0,0,0,93,154.78Z" fill="#f9b2ac"></path><path d="M107.77,160.89a.39.39,0,0,0-.1.77A.39.39,0,0,0,107.77,160.89Z" fill="#f9b2ac"></path><path d="M111.5,158.39a.39.39,0,0,0-.1.77A.39.39,0,0,0,111.5,158.39Z" fill="#f9b2ac"></path><path d="M105.74,158.51a.39.39,0,0,0-.1.77A.39.39,0,0,0,105.74,158.51Z" fill="#f9b2ac"></path><path d="M107.78,154.17a.39.39,0,0,0-.1.77A.39.39,0,0,0,107.78,154.17Z" fill="#f9b2ac"></path><path d="M111.79,155.68a.39.39,0,0,0-.1.77A.39.39,0,0,0,111.79,155.68Z" fill="#f9b2ac"></path><ellipse cx="223.68" cy="170.3" rx="14.93" ry="12.32" transform="translate(-29.12 47.3) rotate(-11.34)" fill="#7ea83b"></ellipse><polyline points="209.28 174.2 208.28 169.41 237.4 163.04 238.47 168.44" fill="#7ea83b"></polyline><ellipse cx="223" cy="166.95" rx="14.93" ry="12.32" transform="translate(-28.47 47.1) rotate(-11.34)" fill="#a2cb6b"></ellipse><ellipse cx="223" cy="166.95" rx="13.05" ry="10.77" transform="translate(-28.47 47.1) rotate(-11.34)" fill="#ecffcf"></ellipse><path d="M213.86,167.26l-1.31.25a.93.93,0,0,0-.61,1.16,1,1,0,0,0,1.16.61l1.31-.25a.93.93,0,0,0,.61-1.16A1,1,0,0,0,213.86,167.26Z" fill="#b5e47c"></path><path d="M216.73,171.23a1,1,0,0,1-.43.44,1,1,0,0,0-.61,1.16.93.93,0,0,0,1.16.61,3,3,0,0,0,1.51-1.33A.92.92,0,0,0,216.73,171.23Z" fill="#b5e47c"></path><path d="M220.06,173.34a2.1,2.1,0,0,0-.09.86c.11,1.18,2,1.11,1.84-.08a.61.61,0,0,1,0-.36.93.93,0,0,0-.69-1.11A.94.94,0,0,0,220.06,173.34Z" fill="#b5e47c"></path><path d="M226.61,172.29a.93.93,0,0,0-.88,1,2.1,2.1,0,0,0,.68,1.34c.89.79,2.16-.56,1.26-1.34-.07-.06-.09-.07-.1-.07h0A1,1,0,0,0,226.61,172.29Z" fill="#b5e47c"></path><path d="M228.47,171.4a6.22,6.22,0,0,0,1.28.86c1.06.52,1.94-1.1.88-1.62a4.2,4.2,0,0,1-.89-.58C228.83,169.28,227.56,170.63,228.47,171.4Z" fill="#b5e47c"></path><path d="M232.44,166.67a1.9,1.9,0,0,1-.83-.07c-1.14-.34-1.55,1.46-.41,1.8a3.29,3.29,0,0,0,1.32.12,1,1,0,0,0,.88-1A.93.93,0,0,0,232.44,166.67Z" fill="#b5e47c"></path><path d="M232.5,162.42a3,3,0,0,1-.75.1.92.92,0,0,0,.08,1.84,5,5,0,0,0,1.22-.18C234.2,163.87,233.64,162.11,232.5,162.42Z" fill="#b5e47c"></path><path d="M229.42,158.85a1,1,0,0,0-.88,1,.69.69,0,0,1-.12.25c-.61,1,1,1.89,1.62.88a2.56,2.56,0,0,0,.34-1.21A.93.93,0,0,0,229.42,158.85Z" fill="#b5e47c"></path><path d="M223.46,157.47l-.16,1.37a1,1,0,0,0,.69,1.11.93.93,0,0,0,1.11-.69l.16-1.37a1,1,0,0,0-.69-1.11A.93.93,0,0,0,223.46,157.47Z" fill="#b5e47c"></path><path d="M219,158.45a.93.93,0,0,0-.61,1.16l.37.86a1,1,0,0,0,1.16.61.93.93,0,0,0,.61-1.16l-.37-.86A1,1,0,0,0,219,158.45Z" fill="#b5e47c"></path><path d="M214.79,162.49l.73.62c.91.76,2.17-.58,1.26-1.34l-.73-.62C215.15,160.38,213.88,161.72,214.79,162.49Z" fill="#b5e47c"></path><path d="M220.65,163.31c-1.25.2-2.78.71-3.18,2.07a2,2,0,0,0,.35,1.81s0,.09,0,.14a1.91,1.91,0,0,0,.45.74c.56,1.23,2.37,1.9,3.56,2a4.24,4.24,0,0,0,4-1.86,1.8,1.8,0,0,0,.19-.6,3.7,3.7,0,0,0,.21-.42C227.6,163.74,223,162.93,220.65,163.31Z" fill="#fefffd"></path><ellipse cx="222.56" cy="152.45" rx="14.93" ry="12.32" transform="translate(-25.63 46.73) rotate(-11.34)" fill="#7ea83b"></ellipse><polyline points="208.16 156.35 207.17 151.56 236.28 145.19 237.35 150.59" fill="#7ea83b"></polyline><ellipse cx="221.89" cy="149.1" rx="14.93" ry="12.32" transform="translate(-24.98 46.53) rotate(-11.34)" fill="#a2cb6b"></ellipse><ellipse cx="221.89" cy="149.1" rx="13.05" ry="10.77" transform="translate(-24.98 46.53) rotate(-11.34)" fill="#ecffcf"></ellipse><path d="M212.75,149.41l-1.31.25a.93.93,0,0,0-.61,1.16,1,1,0,0,0,1.16.61l1.31-.25a.93.93,0,0,0,.61-1.16A1,1,0,0,0,212.75,149.41Z" fill="#b5e47c"></path><path d="M215.62,153.38a1,1,0,0,1-.43.44,1,1,0,0,0-.61,1.16.93.93,0,0,0,1.16.61,3,3,0,0,0,1.51-1.33A.92.92,0,0,0,215.62,153.38Z" fill="#b5e47c"></path><path d="M218.94,155.49a2.1,2.1,0,0,0-.09.86c.11,1.18,2,1.11,1.84-.08a.61.61,0,0,1,0-.36.93.93,0,0,0-.69-1.11A.94.94,0,0,0,218.94,155.49Z" fill="#b5e47c"></path><path d="M225.5,154.44a.93.93,0,0,0-.88,1,2.1,2.1,0,0,0,.68,1.34c.89.79,2.16-.56,1.26-1.34-.07-.06-.09-.07-.1-.07h0A1,1,0,0,0,225.5,154.44Z" fill="#b5e47c"></path><path d="M227.35,153.55a6.22,6.22,0,0,0,1.28.86c1.06.52,1.94-1.1.88-1.62a4.2,4.2,0,0,1-.89-.58C227.71,151.44,226.45,152.78,227.35,153.55Z" fill="#b5e47c"></path><path d="M231.32,148.82a1.9,1.9,0,0,1-.83-.07c-1.14-.34-1.55,1.46-.41,1.8a3.29,3.29,0,0,0,1.32.12,1,1,0,0,0,.88-1A.93.93,0,0,0,231.32,148.82Z" fill="#b5e47c"></path><path d="M231.38,144.57a3,3,0,0,1-.75.1.92.92,0,0,0,.08,1.84,5,5,0,0,0,1.22-.18C233.08,146,232.53,144.26,231.38,144.57Z" fill="#b5e47c"></path><path d="M228.3,141a1,1,0,0,0-.88,1,.69.69,0,0,1-.12.25c-.61,1,1,1.89,1.62.88a2.56,2.56,0,0,0,.34-1.21A.93.93,0,0,0,228.3,141Z" fill="#b5e47c"></path><path d="M222.34,139.62l-.16,1.37a1,1,0,0,0,.69,1.11.93.93,0,0,0,1.11-.69l.16-1.37a1,1,0,0,0-.69-1.11A.93.93,0,0,0,222.34,139.62Z" fill="#b5e47c"></path><path d="M217.88,140.61a.93.93,0,0,0-.61,1.16l.37.86a1,1,0,0,0,1.16.61.93.93,0,0,0,.61-1.16l-.37-.86A1,1,0,0,0,217.88,140.61Z" fill="#b5e47c"></path><path d="M213.68,144.64l.73.62c.91.76,2.17-.58,1.26-1.34l-.73-.62C214,142.53,212.77,143.88,213.68,144.64Z" fill="#b5e47c"></path><path d="M219.53,145.47c-1.25.2-2.78.71-3.18,2.07a2,2,0,0,0,.35,1.81s0,.09,0,.14a1.91,1.91,0,0,0,.45.74c.56,1.23,2.37,1.9,3.56,2a4.24,4.24,0,0,0,4-1.86,1.8,1.8,0,0,0,.19-.6,3.7,3.7,0,0,0,.21-.42C226.49,145.89,221.89,145.08,219.53,145.47Z" fill="#fefffd"></path><ellipse cx="208.9" cy="139.52" rx="14.93" ry="12.32" transform="translate(-23.35 43.79) rotate(-11.34)" fill="#7ea83b"></ellipse><polyline points="194.5 143.42 193.5 138.63 222.62 132.26 223.69 137.65" fill="#7ea83b"></polyline><ellipse cx="208.22" cy="136.16" rx="14.93" ry="12.32" transform="translate(-22.71 43.59) rotate(-11.34)" fill="#a2cb6b"></ellipse><ellipse cx="208.22" cy="136.16" rx="13.05" ry="10.77" transform="translate(-22.71 43.59) rotate(-11.34)" fill="#ecffcf"></ellipse><path d="M199.08,136.48l-1.31.25a.93.93,0,0,0-.61,1.16,1,1,0,0,0,1.16.61l1.31-.25a.93.93,0,0,0,.61-1.16A1,1,0,0,0,199.08,136.48Z" fill="#b5e47c"></path><path d="M202,140.44a1,1,0,0,1-.43.44,1,1,0,0,0-.61,1.16.93.93,0,0,0,1.16.61,3,3,0,0,0,1.51-1.33A.92.92,0,0,0,202,140.44Z" fill="#b5e47c"></path><path d="M205.28,142.55a2.1,2.1,0,0,0-.09.86c.11,1.18,2,1.11,1.84-.08a.61.61,0,0,1,0-.36.93.93,0,0,0-.69-1.11A.94.94,0,0,0,205.28,142.55Z" fill="#b5e47c"></path><path d="M211.84,141.51a.93.93,0,0,0-.88,1,2.1,2.1,0,0,0,.68,1.34c.89.79,2.16-.56,1.26-1.34-.07-.06-.09-.07-.1-.07h0A1,1,0,0,0,211.84,141.51Z" fill="#b5e47c"></path><path d="M213.69,140.62a6.22,6.22,0,0,0,1.28.86c1.06.52,1.94-1.1.88-1.62a4.2,4.2,0,0,1-.89-.58C214.05,138.5,212.79,139.84,213.69,140.62Z" fill="#b5e47c"></path><path d="M217.66,135.89a1.9,1.9,0,0,1-.83-.07c-1.14-.34-1.55,1.46-.41,1.8a3.29,3.29,0,0,0,1.32.12,1,1,0,0,0,.88-1A.93.93,0,0,0,217.66,135.89Z" fill="#b5e47c"></path><path d="M217.72,131.64a3,3,0,0,1-.75.1.92.92,0,0,0,.08,1.84,5,5,0,0,0,1.22-.18C219.42,133.09,218.87,131.32,217.72,131.64Z" fill="#b5e47c"></path><path d="M214.64,128.07a1,1,0,0,0-.88,1,.69.69,0,0,1-.12.25c-.61,1,1,1.89,1.62.88a2.56,2.56,0,0,0,.34-1.21A.93.93,0,0,0,214.64,128.07Z" fill="#b5e47c"></path><path d="M208.68,126.69l-.16,1.37a1,1,0,0,0,.69,1.11.93.93,0,0,0,1.11-.69l.16-1.37a1,1,0,0,0-.69-1.11A.93.93,0,0,0,208.68,126.69Z" fill="#b5e47c"></path><path d="M204.21,127.67a.93.93,0,0,0-.61,1.16l.37.86a1,1,0,0,0,1.16.61.93.93,0,0,0,.61-1.16l-.37-.86A1,1,0,0,0,204.21,127.67Z" fill="#b5e47c"></path><path d="M200,131.71l.73.62c.91.76,2.17-.58,1.26-1.34l-.73-.62C200.37,129.6,199.11,130.94,200,131.71Z" fill="#b5e47c"></path><path d="M205.87,132.53c-1.25.2-2.78.71-3.18,2.07a2,2,0,0,0,.35,1.81s0,.09,0,.14a1.91,1.91,0,0,0,.45.74c.56,1.23,2.37,1.9,3.56,2a4.24,4.24,0,0,0,4-1.86,1.8,1.8,0,0,0,.19-.6,3.7,3.7,0,0,0,.21-.42C212.82,133,208.23,132.15,205.87,132.53Z" fill="#fefffd"></path><path d="M129,167.24a5,5,0,0,1-2-5.56c2.36-9.18,4.89-32.33,31.89-34.6,33.69-2.83,41.86,7.49,47.82,29.48a5.23,5.23,0,0,1-1.41,5.24c-3.86,3.28-13.65,9.28-35.2,11.48C147.74,175.55,134.46,170.2,129,167.24Z" fill="#ede6ca"></path><path d="M152.31,137.75a2.34,2.34,0,0,1-1.59-1.2c-.57-1-2.16-.11-1.59.93a4.14,4.14,0,0,0,2.69,2C153,139.8,153.46,138,152.31,137.75Z" fill="#dba88d"></path><path d="M146.16,147.2a.93.93,0,0,0-1.13.64l-.48,2.59a1,1,0,0,0,.64,1.13.93.93,0,0,0,1.13-.64l.48-2.59A1,1,0,0,0,146.16,147.2Z" fill="#dba88d"></path><path d="M139.09,152.24l-.71-.47c-1-.66-1.92.94-.93,1.59l.71.47C139.15,154.49,140.08,152.89,139.09,152.24Z" fill="#dba88d"></path><path d="M159.66,155.93l-.24.24a.92.92,0,0,0,1.3,1.3l.24-.24A.92.92,0,0,0,159.66,155.93Z" fill="#dba88d"></path><path d="M181.22,148.11a16.41,16.41,0,0,0-1.34,3.5.92.92,0,0,0,1.78.49,14.24,14.24,0,0,1,1.15-3.06C183.36,148,181.77,147.05,181.22,148.11Z" fill="#dba88d"></path><path d="M179.65,157.31h-1.41a.92.92,0,0,0,0,1.85h1.41A.92.92,0,0,0,179.65,157.31Z" fill="#dba88d"></path><path d="M194.11,146.91l-.43,1.43a.92.92,0,0,0,1.78.49l.43-1.43A.92.92,0,0,0,194.11,146.91Z" fill="#dba88d"></path><path d="M169.51,144.58h-.24a.92.92,0,0,0,0,1.85h.24A.92.92,0,0,0,169.51,144.58Z" fill="#dba88d"></path><path d="M170.93,134.23l-1.18-.47a.93.93,0,0,0-1.13.64.94.94,0,0,0,.64,1.13l1.18.47a.93.93,0,0,0,1.13-.64A.94.94,0,0,0,170.93,134.23Z" fill="#dba88d"></path><path d="M161,147.13c-.35-1.13-2.13-.65-1.78.49a2,2,0,0,1-.19,1.65.92.92,0,0,0,1.59.93A3.82,3.82,0,0,0,161,147.13Z" fill="#dba88d"></path><path d="M147.8,161.92a5.45,5.45,0,0,1-1.93-1.51.93.93,0,0,0-1.3,0,.94.94,0,0,0,0,1.3,6.68,6.68,0,0,0,2.3,1.8,1,1,0,0,0,1.26-.33A.93.93,0,0,0,147.8,161.92Z" fill="#dba88d"></path><path d="M172.33,162.53l-1.41.47c-1.12.37-.64,2.16.49,1.78l1.41-.47C173.94,163.94,173.46,162.16,172.33,162.53Z" fill="#dba88d"></path><path d="M195.45,157.66l-1.64,1a.92.92,0,0,0,.93,1.59l1.64-1A.92.92,0,0,0,195.45,157.66Z" fill="#dba88d"></path><path d="M183.43,136.83l-1.18-.47a.93.93,0,0,0-1.13.64.94.94,0,0,0,.64,1.13l1.18.47a.93.93,0,0,0,1.13-.64A.94.94,0,0,0,183.43,136.83Z" fill="#dba88d"></path><path d="M159.41,127.91c.56-.26,9-1.66,9-1.66s3.47-7.29,4.6-5.78-5.7,7.67-2.49,6.37,5.75-6.35,5.87-2.66-4.58,3-4.58,5,5.11,1.07,2.75,3.36-4.05-4.38-5.84-2.47-2,8.74-3.22,5.2,1.95-7.2.43-6.93S159.41,127.91,159.41,127.91Z" fill="#88b72c"></path><path d="M168.51,130.18c-.61.09-9.09-.93-9.09-.93s-5.38,6-6,4.26,7.62-5.76,4.17-5.42-7.3,4.49-6.38.91,5.23-1.58,5.8-3.51-4.61-2.46-1.69-4,2.66,5.34,4.91,4,4.37-7.83,4.55-4.09-3.89,6.36-2.36,6.54S168.51,130.18,168.51,130.18Z" fill="#88b72c"></path><path d="M188.75,189.38l-2.42,0,1.63-4.79a45.42,45.42,0,0,0,9.84-.89,105.49,105.49,0,0,0,21.67-4,41,41,0,0,0,4.63-1.36c6-.33,12.41-5.29,9.84,1.82-1.69,4.66-4.72,6.59-6.29,8.05q-8.4.63-16.8.94C203.48,189,196.12,189.15,188.75,189.38Z" fill="#99ce45"></path><path d="M184.88,193.6l.75-2.2,2.6-.09,40.65,1c4,2.13,11.56,3,6.83,6.25-4,2.78-9,1.07-10.69,2.1q-5.57-.51-11.1-1.33C204.39,196.86,194.64,195.19,184.88,193.6Z" fill="#99ce45"></path><path d="M185,198l-1.49-.51.69-2a.87.87,0,0,0,.67.65l41,9.48c2.49,3.75,6.28,4.68.06,4.64-4.34,0-7-.68-8.48,0L185.9,198A1,1,0,0,0,185,198Z" fill="#99ce45"></path><path d="M188.8,182.06l.28-.83a.81.81,0,0,0,1.24.22c5.91-4.63,13-7.8,18.23-13.13a6.49,6.49,0,0,0,1.76-.13c6.32-1.2,8.63-3.18,10.28,1.21,1.1,2.93-1.31,5.55-1.15,7.2-9.39,2.94-19.13,4.34-28.92,5.47Z" fill="#99ce45"></path><path d="M190.68,176.53s4.17-15,11.42-14.2c3.54.4,4.08,2.09,4.43,3.57-5.59,4.6-11.24,9.12-16.88,13.65Z" fill="#99ce45"></path><path d="M182.88,201l-.39-.36.12-.37.54.57A1,1,0,0,0,182.88,201Z" fill="#99ce45"></path><path d="M184.94,200c.69.22,1.38.45,2.07.66a133.49,133.49,0,0,1,28.8,18.78c-.53,1.13-1.69,1.14-4.1.27-4.32-1.56-8.4-8.51-10.65-5.39-2.61-2.74-5.86-4.85-8.72-7.32C189.77,204.73,187.32,202.39,184.94,200Z" fill="#99ce45"></path><path d="M215.59,215.71a.91.91,0,0,0,.64.1c0,.29,0,.56,0,.82-.42-.42-.83-.84-1.26-1.24Z" fill="#99ce45"></path><path d="M190.33,181.45a.81.81,0,0,1-1.24-.22l.57-1.68c5.64-4.53,11.29-9,16.88-13.65.29,1.21.46,2.28,2,2.42C203.29,173.65,196.24,176.82,190.33,181.45Z" fill="#88b72c"></path><path d="M197.8,183.65a45.42,45.42,0,0,1-9.84.89l.85-2.49h1.73c9.79-1.13,19.53-2.53,28.92-5.47.08.82.8,1.41,2.92,1.67a9.66,9.66,0,0,0,1.72,0,41,41,0,0,1-4.63,1.36A105.49,105.49,0,0,1,197.8,183.65Z" fill="#88b72c"></path><path d="M185.63,191.4l.7-2.06,2.42,0c7.36-.23,14.73-.39,22.09-.27q8.41-.31,16.8-.94c-1.06,1-1.46,1.75-.35,3a5.83,5.83,0,0,0,1.59,1.16l-40.65-1Z" fill="#88b72c"></path><path d="M184.24,195.49l.64-1.88c9.76,1.59,19.5,3.25,29,5.73q5.53.83,11.1,1.33c-.62.39-.78,1.16-.25,2.69a10.08,10.08,0,0,0,1.13,2.25l-41-9.48A.87.87,0,0,1,184.24,195.49Z" fill="#88b72c"></path><path d="M182.29,201.23l.2-.58.39.36a1,1,0,0,1,.27-.16l-.54-.57.94-2.78L185,198a1,1,0,0,1,.85-.06l31.59,12.29c-1,.46-1.39,1.54-1.31,3.9,0,.61,0,1.15,0,1.66a.91.91,0,0,1-.64-.1l-.63-.33c.43.41.84.83,1.26,1.24a7.18,7.18,0,0,1-.4,2.77A133.49,133.49,0,0,0,187,200.62c-.7-.21-1.38-.44-2.07-.66,2.37,2.43,4.83,4.77,7.4,7,2.87,2.47,6.11,4.58,8.72,7.32l-.1.14C198.75,217.87,182.29,201.23,182.29,201.23Z" fill="#88b72c"></path><path d="M201.51,191.53a15.46,15.46,0,0,0,1.31-1.11,6.83,6.83,0,0,0-.37-10.2c-3-2.67-6.46-2.62-10.45-2.93l-.43,0c-.22-.81-.23-2-.5-2.61a9.55,9.55,0,0,0-3.72-4.12c-3.58-2.31-8.13-2.59-12.4-1.69-1.52.32-4.42,2-5.93,1.46s-3.36-3.76-4.91-4.8c-7-4.68-17.07-2.18-21.17,4.25a16.49,16.49,0,0,0-2,5.93c-.58,2.76-1.61,2.88-4.49,4.06-4.36,1.78-7.51,4.84-7.6,9.15-.11,5.39,3.33,8.69,8,10.64.41.24.84.46,1.28.68a23.15,23.15,0,0,0,6,6.11c5.26,3.64,11.72,4.36,18.24,5,10.32,1,26.82,3.23,34.23-4.71,6.82-2.6,11.81-9.35,5.18-14.86Z" fill="#f8f5e6"></path><ellipse cx="168.03" cy="185.82" rx="19.01" ry="9.93" fill="#f19e16"></ellipse><path d="M174,178.59c-3.78,0-3.79,5.87,0,5.87S177.81,178.59,174,178.59Z" fill="#f9f6bf"></path><path d="M167.31,193c-6.78-.55-16.32-3.87-17.1-10.66a5.94,5.94,0,0,0-1.19,3.44c0,5.49,8.51,9.93,19,9.93,8.55,0,15.78-2.95,18.17-7C181.21,192.67,174,193.59,167.31,193Z" fill="#db8303"></path><path d="M342.09,142.39a223.88,223.88,0,0,1-13.82,25.73,78.49,78.49,0,0,1-22.57,23.54c-10.06,6.76-21.53,11.1-32.32,16.48q-8.92,4.45-17.9,8.78c-1.35.65-6.87,2.25-7.59,3.64,0,0-3.19,6.17,1.33,8.76s56.85,8.66,81.36-17.68,23-63,18.62-67.95S342.09,142.39,342.09,142.39Z" fill="#ffe04a"></path><path d="M349.55,144.18a50.32,50.32,0,0,1-1.26,12.62,179.33,179.33,0,0,1-4.6,17.36c-4,12.82-9.84,25.32-19.23,35.12a65.29,65.29,0,0,1-24.17,15.85c-16.21,6.11-33.94,6.33-51,4.21,4.74,2.6,56.88,8.58,81.32-17.7C354.4,186,353.64,150.63,349.55,144.18Z" fill="#e8c018"></path><path d="M251.4,225.86a6.2,6.2,0,0,0-1.37-4.07,1.32,1.32,0,0,0-.9-.52,1.38,1.38,0,0,0-2.13.62,7.67,7.67,0,0,0-.33,4.34c.31,1.35,1.11,3.55,2.89,3.06C250.93,228.92,251.37,227.09,251.4,225.86Z" fill="#875421"></path><path d="M342.84,145l5.68,2.61a1.53,1.53,0,0,0,2.16-1.22c.36-3.16,1-9.1,1.09-12.19a1.52,1.52,0,0,0-1.43-1.57l-8.2-.54a1.53,1.53,0,0,0-1.61,1.74l1.44,10A1.53,1.53,0,0,0,342.84,145Z" fill="#875421"></path></g></g></svg>