<svg xmlns="http://www.w3.org/2000/svg" viewBox="0 0 400 300" width="406" height="306" class="illustration styles_illustrationTablet__1DWOa"><g id="_551_watermelon_outline" data-name="#551_watermelon_outline"><path d="M235.62,97.1l-.1.7a11.05,11.05,0,0,1-5,6.56,8.22,8.22,0,0,1-4.08,1.3,8.33,8.33,0,0,1-4.37-.19,8.89,8.89,0,0,1-2.14-.83,12.11,12.11,0,0,1-.92,1.88,14.51,14.51,0,0,1-2,2.49c-.38.32-.78.63-1.19.92a14.11,14.11,0,0,1-1.15.89l-.23.13a22.39,22.39,0,0,1-2.72,1.15l-.29.08c-.67.16-2.35.35-3,.41l-.34,0a10.86,10.86,0,0,1-5.18-1.31,7.51,7.51,0,0,1-.85,1.12,8.36,8.36,0,0,1-3.07,2.83,8.22,8.22,0,0,1-4.08,1.3,8.37,8.37,0,0,1-4.38-.2c-.16,0-2.53-1-2.68-1.12a24.26,24.26,0,0,1-2.3-1.77c-.41-.43-.72-.89-1.11-1.39a15.55,15.55,0,0,1-1.5-2.14c-.15-.26-.28-.53-.41-.79a11.69,11.69,0,0,1-3.35.47c-7.73,0-11.22-6.56-10.49-12.51H94.21a105.79,105.79,0,1,0,211.58,0Z" fill="#22c55e"></path><path d="M200,203.9A106.92,106.92,0,0,1,93.21,97.1a1,1,0,0,1,1-1h74.44a1,1,0,0,1,.75.34,1,1,0,0,1,.24.79,10.85,10.85,0,0,0,2.41,8.41,9.16,9.16,0,0,0,7.09,3,10.58,10.58,0,0,0,3.06-.43,1,1,0,0,1,1.18.51l.4.77a11.7,11.7,0,0,0,1.19,1.71l.52.68a10.59,10.59,0,0,0,.74.92,26,26,0,0,0,2.08,1.59c.2.1,2.19.94,2.46,1a7.33,7.33,0,0,0,3.88.18l.17,0a7.06,7.06,0,0,0,3.59-1.15,7.43,7.43,0,0,0,2.77-2.52.69.69,0,0,1,.11-.13,7.43,7.43,0,0,0,.74-1,1,1,0,0,1,1.31-.34,9.85,9.85,0,0,0,4.71,1.2h.25c.7-.06,2.31-.25,2.89-.39l.22-.06a20.49,20.49,0,0,0,2.56-1.08l.19-.11c.31-.22.67-.5,1-.79s.8-.6,1.16-.9a12.84,12.84,0,0,0,1.77-2.27,10.31,10.31,0,0,0,.85-1.73,1,1,0,0,1,.59-.57,1,1,0,0,1,.82.06,7.26,7.26,0,0,0,1.89.73,7.51,7.51,0,0,0,3.92.2l.18,0a7.24,7.24,0,0,0,3.58-1.14c1.42-.92,3.92-2.91,4.61-5.94l.07-.61a1,1,0,0,1,1-.87h70.17a1,1,0,0,1,1,1A106.92,106.92,0,0,1,200,203.9ZM95.21,98.1a104.79,104.79,0,0,0,209.58,0H236.47a12,12,0,0,1-5.45,7.1,9.22,9.22,0,0,1-4.49,1.46,9.33,9.33,0,0,1-4.8-.24,9,9,0,0,1-1.34-.43c-.18.36-.37.72-.57,1.05a14.2,14.2,0,0,1-2.1,2.67.23.23,0,0,1-.07.07c-.4.33-.81.65-1.24,1a13,13,0,0,1-1.16.9l-.33.19a22.65,22.65,0,0,1-2.89,1.22l-.36.1a29.42,29.42,0,0,1-3.19.44l-.4,0a11.82,11.82,0,0,1-4.88-1,5.81,5.81,0,0,1-.38.46,9.39,9.39,0,0,1-3.4,3.1,9,9,0,0,1-4.42,1.41,9.48,9.48,0,0,1-4.81-.23h0c-.59-.18-2.78-1.15-2.88-1.21a22,22,0,0,1-2.52-1.94,10.88,10.88,0,0,1-.9-1.1l-.5-.65a14.22,14.22,0,0,1-1.37-2l-.06-.1a13.1,13.1,0,0,1-2.82.3,11.08,11.08,0,0,1-8.59-3.65,12.7,12.7,0,0,1-3-8.86Z" fill="#093f68"></path><path d="M235.62,97.1l-.1.7a11.05,11.05,0,0,1-5,6.56,8.22,8.22,0,0,1-4.08,1.3,8.33,8.33,0,0,1-4.37-.19,8.89,8.89,0,0,1-2.14-.83,12.11,12.11,0,0,1-.92,1.88,14.51,14.51,0,0,1-2,2.49c-.38.32-.78.63-1.19.92a14.11,14.11,0,0,1-1.15.89l-.23.13a22.39,22.39,0,0,1-2.72,1.15l-.29.08c-.67.16-2.35.35-3,.41l-.34,0a10.86,10.86,0,0,1-5.18-1.31,7.51,7.51,0,0,1-.85,1.12,8.36,8.36,0,0,1-3.07,2.83,8.22,8.22,0,0,1-4.08,1.3,8.37,8.37,0,0,1-4.38-.2c-.16,0-2.53-1-2.68-1.12a24.26,24.26,0,0,1-2.3-1.77c-.41-.43-.72-.89-1.11-1.39a15.55,15.55,0,0,1-1.5-2.14c-.15-.26-.28-.53-.41-.79a11.69,11.69,0,0,1-3.35.47c-7.73,0-11.22-6.56-10.49-12.51H110.16a89.84,89.84,0,0,0,179.68,0Z" fill="#fff"></path><path d="M200,187.94A90.94,90.94,0,0,1,109.16,97.1a1,1,0,0,1,1-1h58.49a1,1,0,0,1,.75.34,1,1,0,0,1,.24.79,10.85,10.85,0,0,0,2.41,8.41,9.16,9.16,0,0,0,7.09,3,10.58,10.58,0,0,0,3.06-.43,1,1,0,0,1,1.18.51l.4.77a11.7,11.7,0,0,0,1.19,1.71l.52.68a10.59,10.59,0,0,0,.74.92,26,26,0,0,0,2.08,1.59c.2.1,2.19.94,2.46,1a7.33,7.33,0,0,0,3.88.18l.17,0a7.06,7.06,0,0,0,3.59-1.15,7.43,7.43,0,0,0,2.77-2.52.69.69,0,0,1,.11-.13,7.43,7.43,0,0,0,.74-1,1,1,0,0,1,1.31-.34,9.85,9.85,0,0,0,4.71,1.2h.25c.7-.06,2.31-.25,2.89-.39l.22-.06a20.49,20.49,0,0,0,2.56-1.08l.19-.11c.31-.22.67-.5,1-.79s.8-.6,1.16-.9a12.84,12.84,0,0,0,1.77-2.27,10.31,10.31,0,0,0,.85-1.73,1,1,0,0,1,.59-.57,1,1,0,0,1,.82.06,7.26,7.26,0,0,0,1.89.73,7.51,7.51,0,0,0,3.92.2l.18,0a7.24,7.24,0,0,0,3.58-1.14c1.42-.92,3.92-2.91,4.61-5.94l.07-.61a1,1,0,0,1,1-.87h54.22a1,1,0,0,1,1,1A90.94,90.94,0,0,1,200,187.94ZM111.17,98.1a88.84,88.84,0,0,0,177.66,0H236.47a12,12,0,0,1-5.45,7.1,9.22,9.22,0,0,1-4.49,1.46,9.33,9.33,0,0,1-4.8-.24,9,9,0,0,1-1.34-.43c-.18.36-.37.72-.57,1.05a14.2,14.2,0,0,1-2.1,2.67.23.23,0,0,1-.07.07c-.4.33-.81.65-1.24,1a13,13,0,0,1-1.16.9l-.33.19a22.65,22.65,0,0,1-2.89,1.22l-.36.1a29.42,29.42,0,0,1-3.19.44l-.4,0a11.82,11.82,0,0,1-4.88-1,5.81,5.81,0,0,1-.38.46,9.39,9.39,0,0,1-3.4,3.1,9,9,0,0,1-4.42,1.41,9.48,9.48,0,0,1-4.81-.23h0c-.59-.18-2.78-1.15-2.88-1.21a22,22,0,0,1-2.52-1.94,10.88,10.88,0,0,1-.9-1.1l-.5-.65a14.22,14.22,0,0,1-1.37-2l-.06-.1a13.1,13.1,0,0,1-2.82.3,11.08,11.08,0,0,1-8.59-3.65,12.7,12.7,0,0,1-3-8.86Z" fill="#093f68"></path><path d="M235.62,97.1l-.1.7a11.05,11.05,0,0,1-5,6.56,8.22,8.22,0,0,1-4.08,1.3,8.33,8.33,0,0,1-4.37-.19,8.89,8.89,0,0,1-2.14-.83,12.11,12.11,0,0,1-.92,1.88,14.51,14.51,0,0,1-2,2.49c-.38.32-.78.63-1.19.92a14.11,14.11,0,0,1-1.15.89l-.23.13a22.39,22.39,0,0,1-2.72,1.15l-.29.08c-.67.16-2.35.35-3,.41l-.34,0a10.86,10.86,0,0,1-5.18-1.31,7.51,7.51,0,0,1-.85,1.12,8.36,8.36,0,0,1-3.07,2.83,8.22,8.22,0,0,1-4.08,1.3,8.37,8.37,0,0,1-4.38-.2c-.16,0-2.53-1-2.68-1.12a24.26,24.26,0,0,1-2.3-1.77c-.41-.43-.72-.89-1.11-1.39a15.55,15.55,0,0,1-1.5-2.14c-.15-.26-.28-.53-.41-.79a11.69,11.69,0,0,1-3.35.47c-7.73,0-11.22-6.56-10.49-12.51h-52.1a83.45,83.45,0,1,0,166.9,0Z" fill="#f56132"></path><path d="M200,181.56A84.56,84.56,0,0,1,115.54,97.1a1,1,0,0,1,1-1h52.11a1,1,0,0,1,.75.34,1,1,0,0,1,.24.79,10.85,10.85,0,0,0,2.41,8.41,9.16,9.16,0,0,0,7.09,3,10.58,10.58,0,0,0,3.06-.43,1,1,0,0,1,1.18.51l.4.77a11.7,11.7,0,0,0,1.19,1.71l.52.68a10.59,10.59,0,0,0,.74.92,26,26,0,0,0,2.08,1.59c.2.1,2.19.94,2.46,1a7.33,7.33,0,0,0,3.88.18l.17,0a7.06,7.06,0,0,0,3.59-1.15,7.43,7.43,0,0,0,2.77-2.52.69.69,0,0,1,.11-.13,7.43,7.43,0,0,0,.74-1,1,1,0,0,1,1.31-.34,9.85,9.85,0,0,0,4.71,1.2h.25c.7-.06,2.31-.25,2.89-.39l.22-.06a20.49,20.49,0,0,0,2.56-1.08l.19-.11c.31-.22.67-.5,1-.79s.8-.6,1.16-.9a12.84,12.84,0,0,0,1.77-2.27,10.31,10.31,0,0,0,.85-1.73,1,1,0,0,1,.59-.57,1,1,0,0,1,.82.06,7.26,7.26,0,0,0,1.89.73,7.51,7.51,0,0,0,3.92.2l.18,0a7.24,7.24,0,0,0,3.58-1.14c1.42-.92,3.92-2.91,4.61-5.94l.07-.61a1,1,0,0,1,1-.87h47.84a1,1,0,0,1,1,1A84.56,84.56,0,0,1,200,181.56ZM117.55,98.1a82.46,82.46,0,0,0,164.9,0h-46a12,12,0,0,1-5.45,7.1,9.22,9.22,0,0,1-4.49,1.46,9.33,9.33,0,0,1-4.8-.24,9,9,0,0,1-1.34-.43c-.18.36-.37.72-.57,1.05a14.2,14.2,0,0,1-2.1,2.67.23.23,0,0,1-.07.07c-.4.33-.81.65-1.24,1a13,13,0,0,1-1.16.9l-.33.19a22.65,22.65,0,0,1-2.89,1.22l-.36.1a29.42,29.42,0,0,1-3.19.44l-.4,0a11.82,11.82,0,0,1-4.88-1,5.81,5.81,0,0,1-.38.46,9.39,9.39,0,0,1-3.4,3.1,9,9,0,0,1-4.42,1.41,9.48,9.48,0,0,1-4.81-.23h0c-.59-.18-2.78-1.15-2.88-1.21a22,22,0,0,1-2.52-1.94,10.88,10.88,0,0,1-.9-1.1l-.5-.65a14.22,14.22,0,0,1-1.37-2l-.06-.1a13.1,13.1,0,0,1-2.82.3,11.08,11.08,0,0,1-8.59-3.65,12.7,12.7,0,0,1-3-8.86Z" fill="#093f68"></path><path d="M142.86,132.49A1,1,0,0,1,142,132a1,1,0,0,1,.33-1.38l6.48-3.94a1,1,0,0,1,1.37.33,1,1,0,0,1-.33,1.38l-6.48,3.94A1,1,0,0,1,142.86,132.49Z" fill="#093f68"></path><path d="M260.13,131.08a1,1,0,0,1-.63-.23l-6.2-5.07a1,1,0,0,1-.14-1.4,1,1,0,0,1,1.41-.14l6.19,5.06a1,1,0,0,1,.14,1.41A1,1,0,0,1,260.13,131.08Z" fill="#093f68"></path><path d="M245.64,148a1,1,0,0,1-.86-.48l-5.08-8.42a1,1,0,1,1,1.72-1l5.08,8.43a1,1,0,0,1-.34,1.37A1,1,0,0,1,245.64,148Z" fill="#093f68"></path><path d="M227,157.14a1,1,0,0,1-1-.77L223.89,147a1,1,0,0,1,.75-1.2,1,1,0,0,1,1.2.76l2.12,9.33a1,1,0,0,1-.75,1.2A.9.9,0,0,1,227,157.14Z" fill="#093f68"></path><path d="M205.37,165.46h-.12a1,1,0,0,1-.87-1.11l1.12-9.65a1,1,0,0,1,2,.24l-1.13,9.64A1,1,0,0,1,205.37,165.46Z" fill="#093f68"></path><path d="M162,147.81a1,1,0,0,1-.58-.18,1,1,0,0,1-.24-1.4l5.63-8a1,1,0,0,1,1.4-.24,1,1,0,0,1,.24,1.39l-5.63,8A1,1,0,0,1,162,147.81Z" fill="#093f68"></path><path d="M136.16,109.4a1,1,0,0,1-.24-2l5.77-1.41a1,1,0,1,1,.48,1.94l-5.77,1.41A1,1,0,0,1,136.16,109.4Z" fill="#093f68"></path><path d="M268.4,111.74a1,1,0,0,1-.3,0l-6.72-2.16a1,1,0,1,1,.61-1.9l6.72,2.16a1,1,0,0,1-.31,1.95Z" fill="#093f68"></path><path d="M185.38,157.57a1,1,0,0,1-.34-.06,1,1,0,0,1-.6-1.28l3.68-10.18a1,1,0,1,1,1.88.68l-3.68,10.18A1,1,0,0,1,185.38,157.57Z" fill="#093f68"></path><path d="M166.51,124.28a1,1,0,0,1-.72-.31,1,1,0,0,1,0-1.41l5.26-5a1,1,0,0,1,1.38,1.45l-5.26,5A1,1,0,0,1,166.51,124.28Z" fill="#093f68"></path><path d="M243.1,124.28a1,1,0,0,1-.71-.29l-4.51-4.57a1,1,0,0,1,1.42-1.4l4.51,4.56a1,1,0,0,1-.71,1.7Z" fill="#093f68"></path><path d="M212.69,140.09a1,1,0,0,1-1-1v-7.6a1,1,0,0,1,2,0v7.6A1,1,0,0,1,212.69,140.09Z" fill="#093f68"></path><path d="M185.69,136.07a1,1,0,0,1-.86-1.5l3-5.29a1,1,0,1,1,1.73,1l-3.05,5.3A1,1,0,0,1,185.69,136.07Z" fill="#093f68"></path><path d="M154.52,113a1,1,0,0,1-.47-1.88l4.84-2.58a1,1,0,1,1,.94,1.76L155,112.91A1,1,0,0,1,154.52,113Z" fill="#093f68"></path></g></svg>